<?xml version="1.0" encoding="utf-8"?>
<!-- Generator: Adobe Illustrator 26.1.0, SVG Export Plug-In . SVG Version: 6.00 Build 0)  -->
<svg version="1.1" id="Ebene_2" xmlns="http://www.w3.org/2000/svg" xmlns:xlink="http://www.w3.org/1999/xlink" x="0px" y="0px"
	 viewBox="0 0 569.1 104.5" style="enable-background:new 0 0 569.1 104.5;" xml:space="preserve">
<style type="text/css">
	.st0{fill:#FFFFFF;}
</style>
<g>
	<polygon class="st0" points="472.1,38.5 458.8,75.1 453.7,38.5 417.6,38.5 394.7,101.5 419.7,101.5 432.5,66.1 437.5,101.5 
		474.2,101.5 497.1,38.5 	"/>
	<polygon class="st0" points="521.8,84.9 524.2,78.3 554.6,78.3 560.7,61.7 530.2,61.7 532.7,55.1 563.1,55.1 569.1,38.5 
		509.2,38.5 486.3,101.5 546.2,101.5 552.2,84.9 	"/>
	<polygon class="st0" points="235.3,38.5 201.3,38.5 178.1,65 178.1,65 187.7,38.5 157.3,38.5 134.4,101.8 164.8,101.8 174.8,74.1 
		185,101.8 219,101.8 206.1,66.7 	"/>
	<path class="st0" d="M291.3,38.5h-48.8l-22.9,63.3h30.4l8.2-22.8c10.5,0,10.8,1.7,8.4,13.4c-0.8,3.7-0.7,7-0.4,9.4h30.5
		c-0.3-7.4,2.1-15,2.7-23.4c0.6-8.2-8.9-9-8.9-9s17.7-2.9,20.6-19.1C313.2,39.3,300.2,38.5,291.3,38.5z M279.2,57.4
		c-0.8,5.5-9.7,7.1-15.3,6.9l4-11.3C267.9,53,280,51.9,279.2,57.4z"/>
	<path class="st0" d="M365.5,36.2c-9.8,0-44.7,3.8-53.6,33.9c-8.9,30.1,13.3,34.3,30.6,34.3c17.3,0,39.8-5,52.4-29.7
		C407.5,50.1,393.8,36.2,365.5,36.2z M362.4,72.1c-2.7,5.9-5,15.1-14.5,15.1c-9.5,0-3.3-13.1-2-17.5c1.4-4.4,6.6-16.4,15.1-16.4
		C369.8,53.3,365.1,66.2,362.4,72.1z"/>
	<path class="st0" d="M70.1,75.2C73.3,50.1,77.9,25.8,81,0L63.6,16.9L46.3,0l10.1,75.2H70.1z"/>
	<path class="st0" d="M25.1,84.4l8.7-8.4c-8.2-6-13.5-14.5-12.8-24.3c1.4-13,14.7-22.7,26-26.3L31.1,9.4
		c-14.5,4.8-29.4,19-30.8,34.9C-1.9,61.5,10.4,76.6,25.1,84.4z"/>
	<path class="st0" d="M95.9,9.4L79.8,25.5c10.4,3.1,22.2,11.3,25.1,22.7c2.9,11.3-3.6,21.2-12.1,27.7l4.6,4.8
		c1.7,1.9,3.9,3.6,3.9,3.6s5.1-2.9,7.2-4.3c12.8-8.9,19.5-23.1,17.8-37.4C123.4,27.7,110.2,14.2,95.9,9.4z"/>
	<polygon class="st0" points="23.6,86 7.4,101.7 117.9,101.7 102.7,86 	"/>
</g>
</svg>
